<svg xmlns="http://www.w3.org/2000/svg" xmlns:xlink="http://www.w3.org/1999/xlink" version="1.1" id="Layer_1" viewBox="0 0 502 502" xml:space="preserve" fill="#000000" stroke="#000000" stroke-width="0.00502"><g id="SVGRepo_bgCarrier" stroke-width="0"></g><g id="SVGRepo_tracerCarrier" stroke-linecap="round" stroke-linejoin="round"></g><g id="SVGRepo_iconCarrier"> <g> <g> <rect x="176" y="10" style="fill:#4D93E8;" width="150" height="216"></rect> <g> <rect x="204" y="37" style="fill:#CCD7EB;" width="94" height="100"></rect> <path d="M298,147h-94c-5.522,0-10-4.477-10-10V37c0-5.523,4.478-10,10-10h94c5.522,0,10,4.477,10,10v100 C308,142.523,303.522,147,298,147z M214,127h74V47h-74V127z"></path> </g> <g> <path d="M267,96h-32c-5.522,0-10-4.477-10-10s4.478-10,10-10h32c5.522,0,10,4.477,10,10S272.522,96,267,96z"></path> </g> <g> <path d="M293,191h-5c-5.522,0-10-4.477-10-10s4.478-10,10-10h5c5.522,0,10,4.477,10,10S298.522,191,293,191z"></path> </g> <g> <path d="M256,191h-47c-5.522,0-10-4.477-10-10s4.478-10,10-10h47c5.522,0,10,4.477,10,10S261.522,191,256,191z"></path> </g> </g> <path d="M326,0H176c-5.522,0-10,4.477-10,10v216c0,5.523,4.478,10,10,10h65v256c0,5.523,4.478,10,10,10s10-4.477,10-10V236h65 c5.522,0,10-4.477,10-10V10C336,4.477,331.522,0,326,0z M316,216H186V20h130V216z"></path> </g> </g></svg>