<svg version="1.2" xmlns="http://www.w3.org/2000/svg" viewBox="0 0 30 30" width="30" height="30">
	<title>bus-stop_global-svg</title>
	<style>
		.s0 { fill: #fad508 } 
		.s1 { fill: #ffffff } 
	</style>
	<g id="SVGRepo_bgCarrier">
		<path class="s0" d="m7.4 1.2h14.4c3.9 0 7.2 3.2 7.2 7.2v14.4c0 3.9-3.3 7.2-7.2 7.2h-14.4c-4 0-7.2-3.3-7.2-7.2v-14.4c0-4 3.2-7.2 7.2-7.2z"/>
	</g>
	<g id="SVGRepo_tracerCarrier">
	</g>
	<g id="SVGRepo_iconCarrier">
		<path fill-rule="evenodd" class="s1" d="m21.8 6.2c1.1 1 1.2 2.7 1.2 5.8h1c0.6 0 1 0.4 1 1v1c0 0.3-0.1 0.6-0.4 0.8l-1.6 1.2c0 3.1-0.1 4.8-1.2 5.8q-0.3 0.4-0.8 0.6v1.6c0 0.6-0.4 1-1 1h-1.5c-0.6 0-1-0.4-1-1v-1q-1.1 0-2.5 0-1.4 0-2.5 0v1c0 0.6-0.4 1-1 1h-1.5c-0.6 0-1-0.4-1-1v-1.6q-0.5-0.2-0.8-0.6c-1.1-1-1.2-2.7-1.2-5.8l-1.6-1.2c-0.3-0.2-0.4-0.5-0.4-0.8v-1c0-0.6 0.4-1 1-1h1c0-3.1 0.1-4.8 1.2-5.8 1.1-1.2 3-1.2 6.8-1.2 3.8 0 5.7 0 6.8 1.2zm-13.3 6.3c0 1.4 0 2.1 0.4 2.6 0.5 0.4 1.2 0.4 2.6 0.4h7c1.4 0 2.1 0 2.6-0.4 0.4-0.5 0.4-1.2 0.4-2.6v-2.5c0-1.4 0-2.1-0.4-2.6-0.5-0.4-1.2-0.4-2.6-0.4h-7c-1.4 0-2.1 0-2.6 0.4-0.4 0.5-0.4 1.2-0.4 2.6zm1.5 7.3h1.5c0.4 0 0.8-0.4 0.8-0.8 0-0.4-0.4-0.7-0.8-0.7h-1.5c-0.4 0-0.7 0.3-0.7 0.7 0 0.4 0.3 0.8 0.7 0.8zm10.8-0.8c-0.1-0.4-0.4-0.7-0.8-0.7h-1.5c-0.4 0-0.8 0.3-0.8 0.7 0.1 0.4 0.4 0.8 0.8 0.8h1.5c0.4 0 0.8-0.4 0.8-0.8z"/>
	</g>
</svg>