<svg width="11" xmlns="http://www.w3.org/2000/svg" height="18" fill="none"><path d="M4.5 8h2v9a1 1 0 0 1-1 1 1 1 0 0 1-1-1V8z" style="fill: rgb(49, 49, 49); fill-opacity: 1;" class="fills"/><defs><clipPath id="a" class="frame-clip frame-clip-def"><rect rx="5.5" ry="5.5" width="11" height="11"/></clipPath></defs><g clip-path="url(#a)"><g class="fills"><rect width="11" height="11" class="frame-background" style="fill: rgb(0, 119, 139); fill-opacity: 1;" ry="5.5" rx="5.5"/></g><g style="fill: rgb(0, 0, 0);" class="frame-children"><path d="M2.833 6.833c0 .294.13.557.334.74V8a.499.499 0 1 0 1 0v-.167h2.666V8a.5.5 0 0 0 1 0v-.427a.992.992 0 0 0 .334-.74V3.5c0-1.167-1.194-1.333-2.667-1.333-1.473 0-2.667.166-2.667 1.333ZM4 7.167a.5.5 0 1 1 0-1 .5.5 0 0 1 0 1Zm3 0a.5.5 0 1 1 0-1 .5.5 0 0 1 0 1Zm.5-2h-4V3.5h4Z" style="fill: rgb(255, 255, 255);" class="fills"/></g></g><g class="strokes"><g class="inner-stroke-shape"><defs><clipPath id="c"><use href="#b"/></clipPath><rect width="11" height="11" class="frame-background" x="0" id="b" style="fill: none; stroke-width: 1; stroke: rgb(255, 255, 255); stroke-opacity: 1;" ry="5.5" rx="5.5" y="0"/></defs><use href="#b" clip-path="url('#c')"/></g></g></svg>